# xmcd CD database file
#
# Track frame offsets:
#	150
#	17637
#	35500
#	49567
#	70765
#	87765
#	100520
#	128472
#	143855
#	159977
#	171227
#	191907
#
# Disc length: 2843 seconds
#
# Revision: 15
# Processed by: cddbd v1.5.2PL0 Copyright (c) Steve Scherf et al.
# Submitted via: CDex 1.70beta3
#
DISCID=910b190c
DTITLE=フリッパーズ・ギター - カメラ・トーク
DYEAR=1990
DGENRE=Pop
TTITLE0=Young, alive, in love - 恋とマシンガン
TTITLE1=Camera! camera! camera! - カメラ！カメラ！カメラ！
TTITLE2=Cool spy on a hot car - クールなスパイでぶっとばせ
TTITLE3=Summer beauty 1990 - ラテンでレッツ・ラヴまたは1990サマー・ビューティー計画
TTITLE4=Haircut 100 - バスルームで髪を切る100の方法
TTITLE5=Colour field - 青春はいちどだけ
TTITLE6=Big bad bingo - ビッグ・バッド・ビンゴ
TTITLE7=Wild wild summer - ワイルド・サマー/ビートでゴーゴー
TTITLE8=Knife edge caress - 偶然のナイフ・エッジ・カレス
TTITLE9=Southbound excursion - 南へ急ごう
TTITLE10=3a.m. op - 午前3時のオプ
TTITLE11=Camera full of kisses - 全ての言葉はさよなら
EXTD=YEAR: 1990
EXTT0=
EXTT1=
EXTT2=
EXTT3=
EXTT4=
EXTT5=
EXTT6=
EXTT7=
EXTT8=
EXTT9=
EXTT10=
EXTT11=
PLAYORDER=
